<svg width="48" height="48" viewBox="0 0 48 48" fill="none" xmlns="http://www.w3.org/2000/svg">
<path d="M15.4163 7.05949C15.7038 6.92265 16.0001 7.15955 16.0001 7.47787V35.1422C16.0001 35.3655 15.8505 35.558 15.6429 35.6402C15.5071 35.6939 15.3806 35.7536 15.2601 35.8194L10.5601 38.4994C7.28008 40.3794 4.58008 38.8194 4.58008 35.0194V15.5594C4.58008 14.2994 5.48008 12.7394 6.60008 12.0994L15.2601 7.13937C15.311 7.11159 15.363 7.08488 15.4163 7.05949Z" fill="white"/>
<path d="M29.7219 12.3416C29.8922 12.4259 30 12.5996 30 12.7896V40.2021C30 40.5706 29.615 40.8125 29.283 40.6526L19.783 36.0756C19.61 35.9923 19.5 35.8172 19.5 35.6252V8.08487C19.5 7.71401 19.8896 7.47222 20.2219 7.63681L29.7219 12.3416Z" fill="white"/>
<path d="M44 12.9801V32.4401C44 33.7001 43.1 35.2601 41.98 35.9001L34.2486 40.3311C33.9153 40.5221 33.5 40.2815 33.5 39.8973V12.3705C33.5 12.1909 33.5962 12.0252 33.7521 11.9362L38.02 9.50013C41.3 7.62013 44 9.18013 44 12.9801Z" fill="white"/>
</svg>
